<svg width="62" height="30" viewBox="0 0 62 30" fill="none" xmlns="http://www.w3.org/2000/svg">
<path fill-rule="evenodd" clip-rule="evenodd" d="M7.5 19.0437L15 23.21L22.5 19.0437V10.9563L15 6.79L7.5 10.9563V19.0437ZM15 2.5L3.75 8.75V21.25L15 27.5L26.25 21.25V8.75L15 2.5Z" fill="#F0D446"/>
<path fill-rule="evenodd" clip-rule="evenodd" d="M39.5 19.0437L47 23.21L54.5 19.0437V10.9563L47 6.79L39.5 10.9563V19.0437ZM47 2.5L35.75 8.75V21.25L47 27.5L58.25 21.25V8.75L47 2.5Z" fill="#48AF23"/>
<path fill-rule="evenodd" clip-rule="evenodd" d="M23.5 19.0437L31 23.21L38.5 19.0437V10.9563L31 6.79L23.5 10.9563V19.0437ZM31 2.5L19.75 8.75V21.25L31 27.5L42.25 21.25V8.75L31 2.5Z" fill="#7F2FCE"/>
</svg>
