<svg width="30" height="30" viewBox="0 0 30 30" fill="none" xmlns="http://www.w3.org/2000/svg">
<path d="M16.4063 21.0938C16.4063 21.3719 16.3238 21.6438 16.1693 21.875C16.0147 22.1063 15.7951 22.2865 15.5382 22.393C15.2812 22.4994 14.9984 22.5272 14.7257 22.473C14.4529 22.4187 14.2023 22.2848 14.0056 22.0881C13.809 21.8915 13.675 21.6409 13.6208 21.3681C13.5665 21.0953 13.5944 20.8126 13.7008 20.5556C13.8072 20.2986 13.9875 20.079 14.2187 19.9245C14.45 19.77 14.7219 19.6875 15 19.6875C15.373 19.6875 15.7307 19.8357 15.9944 20.0994C16.2581 20.3631 16.4063 20.7208 16.4063 21.0938ZM15 8.4375C12.4148 8.4375 10.3125 10.3301 10.3125 12.6562V13.125C10.3125 13.3736 10.4113 13.6121 10.5871 13.7879C10.7629 13.9637 11.0014 14.0625 11.25 14.0625C11.4986 14.0625 11.7371 13.9637 11.9129 13.7879C12.0887 13.6121 12.1875 13.3736 12.1875 13.125V12.6562C12.1875 11.3672 13.4496 10.3125 15 10.3125C16.5504 10.3125 17.8125 11.3672 17.8125 12.6562C17.8125 13.9453 16.5504 15 15 15C14.7514 15 14.5129 15.0988 14.3371 15.2746C14.1613 15.4504 14.0625 15.6889 14.0625 15.9375V16.875C14.0625 17.1236 14.1613 17.3621 14.3371 17.5379C14.5129 17.7137 14.7514 17.8125 15 17.8125C15.2486 17.8125 15.4871 17.7137 15.6629 17.5379C15.8387 17.3621 15.9375 17.1236 15.9375 16.875V16.7906C18.075 16.398 19.6875 14.693 19.6875 12.6562C19.6875 10.3301 17.5852 8.4375 15 8.4375ZM27.1875 15C27.1875 17.4105 26.4727 19.7668 25.1335 21.771C23.7944 23.7752 21.8909 25.3373 19.664 26.2598C17.437 27.1822 14.9865 27.4236 12.6223 26.9533C10.2582 26.4831 8.08659 25.3223 6.38214 23.6179C4.67769 21.9134 3.51694 19.7418 3.04668 17.3777C2.57643 15.0135 2.81778 12.563 3.74022 10.336C4.66267 8.10907 6.22477 6.20564 8.22899 4.86646C10.2332 3.52728 12.5895 2.8125 15 2.8125C18.2313 2.81591 21.3292 4.10104 23.6141 6.3859C25.899 8.67076 27.1841 11.7687 27.1875 15ZM25.3125 15C25.3125 12.9604 24.7077 10.9666 23.5745 9.27068C22.4414 7.5748 20.8308 6.25302 18.9464 5.47249C17.0621 4.69196 14.9886 4.48774 12.9881 4.88565C10.9877 5.28356 9.1502 6.26573 7.70797 7.70796C6.26574 9.15019 5.28357 10.9877 4.88566 12.9881C4.48775 14.9886 4.69197 17.0621 5.4725 18.9464C6.25303 20.8308 7.57481 22.4414 9.27069 23.5745C10.9666 24.7077 12.9604 25.3125 15 25.3125C17.7341 25.3094 20.3553 24.2219 22.2886 22.2886C24.2219 20.3553 25.3094 17.7341 25.3125 15Z" fill="#7F2FCE"/>
</svg>
